<svg width="144" height="144" viewBox="0 0 1440 1440" xmlns="http://www.w3.org/2000/svg">
    <path d="M757.422 1275.696c-76-25-140-62-140-80 0-19 112-94 179-119 68-25 161-28 214-6 38 17 122 91 122 110 0 18-49 64-93 87-61 31-200 35-282 8zm517.924-517.926c-25-76-62-140-80-140-19 0-94 112-119 179-25 68-28 161-6 214 17 38 91 122 110 122 18 0 64-49 87-93 31-61 35-200 8-282z" fill="#557b6f"/>
    <circle cx="540" cy="540" r="449.62" fill="#fff"/>
    <path d="M825.957 886.523c283.478-209.62 172.936-661.615-127.996-744.338-101.807-35.755-183.394-31.532-289.069-13.3-76.627 19.705-143.997 88.816-167.655 221.017-15.187 82.834-6.236 92.877 23.317 25.716 41.463-93.01 188.455-178.155 311.48-171.607 130.202 5.328 217.639 63.047 297.329 170.446 60.348 82.123 80.492 154.774 69.513 254.17-42.14 288.582-315.619 341.906-435.118 335.159-134.738-18.909-225.888-89.663-225.888-89.663 85.973 51.752 112.253 33.082 238.668-9.37 46.26-18.03 103.74-66.08 98.326-71.709-.775-2.097-20.529 6.144-44.663 6.043-63.022.09-148.472-8.806-208.017-43.554-52.032-29.894-110.506-99.192-130.975-159.806-9.182-26.166-22.127-63.815-29.98-83.798-17.146-45.156-11.055-191.371 9.784-243.398 16.429-39.434 63.985-33.084-4.251-16.476-342.53 356.235 128.624 961.384 615.195 634.468Zm-206.689 21.26c82.152-15.071 161.615-67.103 202.668-110.86C962.562 644.136 920.05 427.659 743.73 297.99c-134.406-101.65-341.517-53.064-431.325 76.86-67.965 96.12-56.114 203.083 13.844 289.285 58.355 72.848 88.953 87.295 204.252 100.032 121.372 12.401 140.252 5.432 190.007-71.57 29.455-48.057 35.407-65.51 44.19-145.025 9.224-83.492-.217-117.991 16.454-71.899 4.839 26.593 10.567 47.597 8.864 115.945-1.324 53.092-14.627 95.974-42.209 136.189-39.718 58.995-120.291 123.539-198.895 161.136-34.002 16.365-61.976 21.418-62.196 23.406-.659 5.964 64.646 9.059 132.553-4.567z" fill="#c37060"/>
    <path d="M372.208 636.276c-76.46-63.78-68.583-180.622 18.278-256.544 33.73-29.574 68.34-37.543 107.977-39.382 99.17 3.912 159.825 46.831 204.5 143.32 13.713 30.691 26.993 74.413 27.56 96.61l2.565 40.527-20.237-44.491C663.529 467.24 585.735 388.22 522.12 381.194c-103.37-11.419-184.366 84.267-151.508 178.444 12.716 30.603 31.551 67.309 77.24 74.933 23.398 3.905 46.415 3.297 63.859-9.516-11.43-5.41-53.321-1.647-78.902-27.358-36.296-36.482-43.479-77.241-24.924-120.465 40.261-73.02 127.492-88.537 179.761-33.465 50.501 52.865 33.101 128.41-45.046 189.198-43.82 32.384-54.309 36.256-96.055 31.645-29.818-3.294-56.88-13.326-74.338-28.334zM574.183 527.91c4.26-38.574-23.555-73.299-62.13-77.56-38.574-4.261-73.299 23.555-77.56 62.13-4.26 38.573 23.555 73.298 62.13 77.56 38.574 4.26 73.299-23.556 77.56-62.13z" fill="#fff"/>
    <path d="M533.6 516.2c-2.037 18.446-18.643 31.748-37.089 29.71-18.446-2.037-31.748-18.643-29.71-37.09 2.038-18.445 18.643-31.747 37.09-29.71 18.446 2.038 31.747 18.644 29.71 37.09zm-66.576 9.457" fill="#fff"/>
    <circle cx="540" cy="540" r="449.62" fill="none" stroke="#000" stroke-width="60.76"/>
    <path d="M1403.884 1361.75s-256.359-262.53-530.083-530.638l-46.917 42.033 532.934 530.517z"/>
</svg>